HIERARCHY
ROOT Hips
{
 OFFSET 0.000000 0.000000 0.000000
 CHANNELS 6 Xposition Yposition Zposition Yrotation Xrotation Zrotation
 JOINT Chest
 {
  OFFSET 0.000000 9.585900 0.002600
  CHANNELS 3 Yrotation Xrotation Zrotation
  JOINT Chest2
  {
   OFFSET 0.000000 9.601200 -0.005300
   CHANNELS 3 Yrotation Xrotation Zrotation
   JOINT Chest3
   {
    OFFSET 0.000000 9.561800 0.000000
    CHANNELS 3 Yrotation Xrotation Zrotation
    JOINT Chest4
    {
     OFFSET 0.000000 9.552100 0.000000
     CHANNELS 3 Yrotation Xrotation Zrotation
     JOINT Neck
     {
      OFFSET 0.000000 14.453000 0.000000
      CHANNELS 3 Yrotation Xrotation Zrotation
      JOINT Head
      {
       OFFSET 0.000000 8.936500 -0.011300
       CHANNELS 3 Yrotation Xrotation Zrotation
       End Site
       {
        OFFSET 0.000000 17.073600 -0.006000
       }
      }
     }
     JOINT RightCollar
     {
      OFFSET -2.921100 9.558500 0.000000
      CHANNELS 3 Yrotation Xrotation Zrotation
      JOINT RightShoulder
      {
       OFFSET -13.519700 0.000000 0.000000
       CHANNELS 3 Yrotation Xrotation Zrotation
       JOINT RightElbow
       {
        OFFSET 0.000000 -29.696600 0.000000
        CHANNELS 3 Yrotation Xrotation Zrotation
        JOINT RightWrist
        {
         OFFSET 0.000000 -24.004700 0.000000
         CHANNELS 3 Yrotation Xrotation Zrotation
         End Site
         {
          OFFSET 0.000000 -17.728500 0.000000
         }
        }
       }
      }
     }
     JOINT LeftCollar
     {
      OFFSET 2.921100 9.558500 0.000000
      CHANNELS 3 Yrotation Xrotation Zrotation
      JOINT LeftShoulder
      {
       OFFSET 13.519700 0.000000 0.000000
       CHANNELS 3 Yrotation Xrotation Zrotation
       JOINT LeftElbow
       {
        OFFSET 0.000000 -29.696600 0.000000
        CHANNELS 3 Yrotation Xrotation Zrotation
        JOINT LeftWrist
        {
         OFFSET 0.000000 -24.004700 0.000000
         CHANNELS 3 Yrotation Xrotation Zrotation
         End Site
         {
          OFFSET 0.000000 -17.728500 0.000000
         }
        }
       }
      }
     }
    }
   }
  }
 }
 JOINT RightHip
 {
  OFFSET -7.771700 -0.012900 -0.001300
  CHANNELS 3 Yrotation Xrotation Zrotation
  JOINT RightKnee
  {
   OFFSET 0.000000 -40.869800 0.001200
   CHANNELS 3 Yrotation Xrotation Zrotation
   JOINT RightAnkle
   {
    OFFSET 0.000000 -39.717900 0.002100
    CHANNELS 3 Yrotation Xrotation Zrotation
    JOINT RightToe
    {
     OFFSET 0.000000 -4.965400 11.033500
     CHANNELS 3 Yrotation Xrotation Zrotation
     End Site
     {
      OFFSET 0.000000 -1.423100 5.872300
     }
    }
   }
  }
 }
 JOINT LeftHip
 {
  OFFSET 7.771700 -0.012900 -0.001300
  CHANNELS 3 Yrotation Xrotation Zrotation
  JOINT LeftKnee
  {
   OFFSET 0.000000 -40.869800 0.001200
   CHANNELS 3 Yrotation Xrotation Zrotation
   JOINT LeftAnkle
   {
    OFFSET 0.000000 -39.717900 0.002100
    CHANNELS 3 Yrotation Xrotation Zrotation
    JOINT LeftToe
    {
     OFFSET 0.000000 -4.965400 11.033500
     CHANNELS 3 Yrotation Xrotation Zrotation
     End Site
     {
      OFFSET 0.000000 -1.423100 5.872300
     }
    }
   }
  }
 }
}
MOTION
Frames: 11
Frame Time: 0.008333
-51.721049 50.016059 36.812329 172.352996 -36.474272 -6.136985 5.472926 21.465648 5.834874 0.644961 3.089993 0.595439 1.074849 4.909855 0.931162 4.525933 18.149596 4.041655 -1.368049 16.253987 1.828717 -3.235980 -5.408084 3.884018 1.229654 -2.303627 -5.097958 4.422049 -4.759104 2.739125 57.659412 -72.262203 -73.966334 0.668031 -4.432651 -11.421146 -11.143232 -0.119423 -0.671910 4.142212 -3.316171 -0.457493 -99.512285 -56.698008 114.823548 10.499565 -13.848237 -8.994407 7.856953 -45.785534 7.877935 -46.957043 83.544170 -35.854965 -3.010768 -4.705089 -0.171891 -0.302413 0.985446 -0.222688 -12.573601 -48.046860 18.156072 -134.883876 87.269967 -141.258488 1.141394 -8.478056 3.161996 -0.023522 -0.288632 0.027979
-51.718456 50.027666 36.816401 172.349956 -36.430343 -6.130355 5.461934 21.527623 5.880258 0.653353 3.033461 0.564459 1.072245 4.930683 0.943047 4.518704 18.160631 4.047760 -1.400475 16.223663 1.774191 -3.256517 -5.469937 3.788833 1.268724 -2.348010 -5.198311 4.373960 -4.698582 2.691739 58.059448 -72.238360 -74.329600 0.690705 -4.036738 -10.999411 -11.154973 -0.189323 -0.674300 4.208419 -3.424974 -0.381232 -99.965053 -56.668159 115.269350 10.257495 -12.787508 -10.338099 7.817004 -45.822051 7.866054 -46.942397 83.554556 -35.835908 -2.998549 -4.736825 -0.200660 -0.310033 1.003219 -0.194851 -12.550654 -48.103105 18.172268 -134.938401 87.272605 -141.314349 1.108181 -8.469024 3.177611 -0.026368 -0.288188 0.035539
-51.715477 50.039757 36.818158 172.350939 -36.397984 -6.125240 5.453241 21.566371 5.914009 0.658503 2.979604 0.529652 1.066856 4.979093 0.974298 4.511715 18.136838 4.026994 -1.427308 16.261625 1.743967 -3.275030 -5.562251 3.692133 1.342933 -2.307619 -5.302178 4.287704 -4.728348 2.714099 58.428924 -72.162515 -74.671110 0.718959 -3.617478 -10.508319 -11.166004 -0.210556 -0.652515 4.275976 -3.551865 -0.303245 -100.417761 -56.641201 115.719531 9.933843 -11.578746 -11.758034 7.754308 -45.843491 7.872533 -46.940250 83.564613 -35.844776 -2.989917 -4.771001 -0.226862 -0.299931 1.023839 -0.193243 -12.524668 -48.146772 18.176810 -134.829607 87.267367 -141.200328 1.087702 -8.464122 3.193014 -0.021113 -0.284929 0.029921
-51.713188 50.050584 36.819590 172.352974 -36.360476 -6.115066 5.439008 21.585899 5.930513 0.651245 3.026016 0.558471 1.068013 4.940759 0.948977 4.505904 18.113134 4.006989 -1.451136 16.274255 1.714085 -3.293873 -5.627247 3.590848 1.390330 -2.302081 -5.361027 4.239459 -4.721179 2.694067 58.811302 -72.099297 -75.036339 0.749155 -3.173300 -9.934375 -11.176126 -0.222326 -0.626526 4.349454 -3.691781 -0.223978 -100.859579 -56.588645 116.170584 9.523279 -10.218234 -13.261882 7.684487 -45.865875 7.876968 -46.964657 83.572948 -35.886496 -2.976996 -4.820007 -0.251357 -0.284107 1.055583 -0.195206 -12.512268 -48.193295 18.192060 -135.012147 87.273407 -141.396969 1.054606 -8.456684 3.205325 -0.019826 -0.282828 0.023742
-51.711418 50.059997 36.820999 172.351948 -36.315950 -6.099075 5.425963 21.570795 5.925316 0.646184 3.069596 0.587115 1.066114 4.930635 0.942402 4.490627 18.169104 4.058138 -1.476989 16.197304 1.610509 -3.311261 -5.679888 3.487448 1.454510 -2.373557 -5.487907 4.200792 -4.604486 2.560220 59.335514 -72.198939 -75.564482 0.781292 -2.700041 -9.276642 -11.166889 -0.336023 -0.680212 4.425428 -3.825569 -0.115396 -101.282605 -56.511675 116.607844 9.036056 -8.729086 -14.868824 7.612608 -45.893223 7.879826 -47.015962 83.578795 -35.958979 -2.965954 -4.879545 -0.272631 -0.263933 1.089864 -0.194556 -12.495735 -48.247139 18.205652 -135.101154 87.276613 -141.503273 1.024753 -8.452194 3.220011 -0.029145 -0.280705 0.034651
-51.707651 50.070763 36.819453 172.347851 -36.289705 -6.090414 5.421322 21.572296 5.930295 0.648380 3.098002 0.608971 1.063259 4.934317 0.945505 4.477514 18.191595 4.081618 -1.497049 16.156095 1.536048 -3.326439 -5.727930 3.385133 1.484760 -2.430185 -5.570897 4.166505 -4.516483 2.447889 59.839524 -72.269900 -76.058166 0.817824 -2.194874 -8.552272 -11.168820 -0.410681 -0.709951 4.518173 -3.963564 -0.004658 -101.699922 -56.438806 117.031101 8.477249 -7.146031 -16.618057 7.525766 -45.908052 7.905073 -47.033208 83.591008 -36.007848 -2.940990 -4.905926 -0.297103 -0.289980 1.076614 -0.177322 -12.455821 -48.282091 18.229190 -134.713125 87.255730 -141.132616 0.996280 -8.453708 3.246694 -0.026075 -0.277335 0.040908
-51.704092 50.081294 36.816680 172.349532 -36.265463 -6.082944 5.426066 21.640469 5.985801 0.643431 3.034088 0.564455 1.064475 4.965063 0.966751 4.468755 18.198214 4.090894 -1.513925 16.134409 1.479038 -3.338412 -5.769905 3.286065 1.502960 -2.471778 -5.631868 4.116465 -4.455039 2.345796 60.118674 -72.365074 -76.309192 0.898557 -1.719105 -7.794186 -11.194073 -0.451933 -0.703507 4.643256 -4.120491 0.084967 -102.138511 -56.407531 117.453070 7.845888 -5.518428 -18.542629 7.436404 -45.919830 7.921603 -47.124346 83.601199 -36.124057 -2.897293 -4.929462 -0.333012 -0.302855 1.070920 -0.169181 -12.448550 -48.309997 18.257886 -134.488066 87.240707 -140.932589 0.978360 -8.455322 3.245398 -0.027692 -0.275104 0.059749
-51.703182 50.087203 36.818369 172.363177 -36.198008 -6.070563 5.409737 21.640533 6.001940 0.638480 2.997395 0.541170 1.066245 4.995699 0.987511 4.460598 18.205510 4.100618 -1.527552 16.117597 1.425507 -3.345810 -5.814177 3.239806 1.580046 -2.456033 -5.705299 3.987750 -4.455794 2.243887 60.732537 -72.444625 -76.890136 0.919989 -1.137098 -6.983934 -11.218641 -0.503201 -0.695282 4.784522 -4.277690 0.173368 -102.611681 -56.446216 117.873402 7.139311 -3.908509 -20.633992 7.358257 -45.971954 7.904355 -47.263611 83.608284 -36.277330 -2.857185 -4.974443 -0.372481 -0.295921 1.089991 -0.165030 -12.460978 -48.384736 18.291692 -134.144709 87.226453 -140.623874 0.950032 -8.450748 3.264468 -0.021646 -0.269341 0.064574
-51.698702 50.097338 36.814191 172.351150 -36.175805 -6.059981 5.425586 21.669169 6.031041 0.640626 3.040413 0.569881 1.057229 4.944826 0.953729 4.457074 18.226945 4.122528 -1.539313 16.107232 1.376261 -3.350545 -5.831705 3.127711 1.594594 -2.494860 -5.761934 3.924191 -4.418612 2.125736 61.342794 -72.548505 -77.477352 0.953251 -0.553151 -6.152379 -11.258144 -0.551109 -0.626408 4.962061 -4.448926 0.196469 -103.099946 -56.562338 118.268336 6.362009 -2.383346 -22.850283 7.294119 -45.983962 7.926015 -47.237357 83.622091 -36.278168 -2.834959 -5.002746 -0.381531 -0.300301 1.102488 -0.178949 -12.461146 -48.405392 18.336962 -133.911887 87.208166 -140.424488 0.926322 -8.457748 3.276789 -0.024737 -0.266397 0.067651
-51.691397 50.104189 36.814669 172.338688 -36.119202 -6.070296 5.443268 21.650125 6.070869 0.642783 3.069663 0.588259 1.053116 4.935828 0.949354 4.442696 18.201510 4.105016 -1.542654 16.119388 1.355376 -3.352939 -5.815956 3.028057 1.636371 -2.466873 -5.788463 3.837234 -4.426558 2.001473 61.830083 -72.670122 -77.952714 1.004874 -0.019027 -5.324256 -11.265826 -0.579038 -0.605604 5.115618 -4.629913 0.282195 -103.569799 -56.736839 118.607853 5.563932 -0.981207 -25.147039 7.219779 -46.036603 7.967730 -47.239470 83.635799 -36.302435 -2.795144 -5.048693 -0.384400 -0.329366 1.124437 -0.192324 -12.504629 -48.462142 18.424461 -133.699484 87.185165 -140.237694 0.915745 -8.462895 3.278642 -0.025020 -0.262933 0.052838
-51.690799 50.114128 36.807844 172.380024 -36.097802 -6.067399 5.410959 21.688041 6.075812 0.641190 3.072624 0.591352 1.052157 4.955671 0.964304 4.430923 18.210070 4.123875 -1.568339 16.051638 1.285260 -3.351840 -5.764477 2.964417 1.666492 -2.498904 -5.858691 3.771101 -4.435704 1.880742 62.306758 -72.792592 -78.438227 1.055063 0.477773 -4.487368 -11.269030 -0.654137 -0.609392 5.268403 -4.840799 0.350120 -104.016766 -56.953330 118.885141 4.822988 0.318510 -27.469658 7.159484 -46.039132 7.931195 -47.387932 83.645029 -36.427003 -2.826797 -5.064490 -0.462770 -0.265980 1.105878 -0.157419 -12.525476 -48.483845 18.423239 -133.448732 87.173506 -140.018559 0.904081 -8.462255 3.295048 -0.023246 -0.262161 0.053523
